<svg width="34" height="28" viewBox="0 0 34 28" fill="none" xmlns="http://www.w3.org/2000/svg">
<path d="M2.83337 27.3332C2.16671 27.3332 1.58337 27.0832 1.08337 26.5832C0.583374 26.0832 0.333374 25.4998 0.333374 24.8332V3.1665C0.333374 2.49984 0.583374 1.9165 1.08337 1.4165C1.58337 0.916504 2.16671 0.666504 2.83337 0.666504H31.1667C31.8334 0.666504 32.4167 0.916504 32.9167 1.4165C33.4167 1.9165 33.6667 2.49984 33.6667 3.1665V24.8332C33.6667 25.4998 33.4167 26.0832 32.9167 26.5832C32.4167 27.0832 31.8334 27.3332 31.1667 27.3332H2.83337ZM17 14.7498L2.83337 5.45817V24.8332H31.1667V5.45817L17 14.7498ZM17 12.2498L31 3.1665H3.04171L17 12.2498ZM2.83337 5.45817V3.1665V24.8332V5.45817Z" fill="#5EFFA8"/>
</svg>
