<svg width="21" height="21" viewBox="0 0 21 21" fill="none" xmlns="http://www.w3.org/2000/svg">
<path d="M1.875 19.125H3.06667L15.0646 7.12712L13.8729 5.93545L1.875 17.9334V19.125ZM18.5042 5.96253L15.0375 2.49587L16.175 1.35837C16.4819 1.05142 16.8611 0.897949 17.3125 0.897949C17.7639 0.897949 18.1431 1.05142 18.45 1.35837L19.6417 2.55003C19.9486 2.85698 20.1021 3.23614 20.1021 3.68753C20.1021 4.13892 19.9486 4.51809 19.6417 4.82503L18.5042 5.96253ZM17.3667 7.10003L3.71667 20.75H0.25V17.2834L13.9 3.63337L17.3667 7.10003ZM14.4688 6.53128L13.8729 5.93545L15.0646 7.12712L14.4688 6.53128Z" fill="#5EFFA8"/>
</svg>
