<svg width="18" height="20" viewBox="0 0 18 20" fill="none" xmlns="http://www.w3.org/2000/svg">
<path d="M3.06879 19.75C2.6174 19.75 2.23372 19.592 1.91775 19.276C1.60178 18.9601 1.44379 18.5764 1.44379 18.125V2.6875H0.333374V1.0625H5.42504V0.25H12.575V1.0625H17.6667V2.6875H16.5563V18.125C16.5563 18.5583 16.3938 18.9375 16.0688 19.2625C15.7438 19.5875 15.3646 19.75 14.9313 19.75H3.06879ZM14.9313 2.6875H3.06879V18.125H14.9313V2.6875ZM5.93962 15.7958H7.56462V4.98958H5.93962V15.7958ZM10.4355 15.7958H12.0605V4.98958H10.4355V15.7958ZM3.06879 2.6875V18.125V2.6875Z" fill="#1E3122"/>
<path d="M3.06879 19.75C2.6174 19.75 2.23372 19.592 1.91775 19.276C1.60178 18.9601 1.44379 18.5764 1.44379 18.125V2.6875H0.333374V1.0625H5.42504V0.25H12.575V1.0625H17.6667V2.6875H16.5563V18.125C16.5563 18.5583 16.3938 18.9375 16.0688 19.2625C15.7438 19.5875 15.3646 19.75 14.9313 19.75H3.06879ZM14.9313 2.6875H3.06879V18.125H14.9313V2.6875ZM5.93962 15.7958H7.56462V4.98958H5.93962V15.7958ZM10.4355 15.7958H12.0605V4.98958H10.4355V15.7958ZM3.06879 2.6875V18.125V2.6875Z" fill="#FF0000"/>
</svg>
